<?xml version="1.0" standalone="no"?><!DOCTYPE svg PUBLIC "-//W3C//DTD SVG 1.1//EN" "http://www.w3.org/Graphics/SVG/1.1/DTD/svg11.dtd"><svg t="1690922587094" class="icon" viewBox="0 0 1024 1024" version="1.1" xmlns="http://www.w3.org/2000/svg" p-id="3173" xmlns:xlink="http://www.w3.org/1999/xlink" width="200" height="200"><path d="M307.2 368.6h102.4c22.5 0 41-18.4 41-41 0-22.5-18.4-41-41-41H307.2c-22.5 0-41 18.4-41 41s18.5 41 41 41zM716.8 491.5H307.2c-22.5 0-41 18.4-41 41 0 22.5 18.4 41 41 41h409.6c22.5 0 41-18.4 41-41 0-22.5-18.5-41-41-41zM716.8 696.3H307.2c-22.5 0-41 18.4-41 41 0 22.5 18.4 41 41 41h409.6c22.5 0 41-18.4 41-41 0-22.5-18.5-41-41-41z" p-id="3174"></path><path d="M962.6 327.7c0-1.2-0.3-2.3-0.3-3.4-1.7-28.8-15.7-57.4-38.2-77.4l-218.6-194c-24.5-21.8-53.7-32.4-89.3-32.4H191.1c-35.1-1.7-69.3 11-94.1 34.8-23 21.9-35.6 50.7-35.6 81.1v749c0 65.1 57.4 118.1 127.8 118.1h645.4c70.5 0 127.8-53 127.8-118.1V330.3c0-0.6-0.1-1.1-0.1-1.7 0.2-0.3 0.3-0.6 0.3-0.9z m-117.1-41H655.4V118l190.1 168.7z m-10.8 634.9H189.3c-24 0-45.9-17.2-45.9-36.1v-749c0-10.4 6.4-18.1 10.3-21.8 8.2-7.8 19.5-12.2 32.9-12.2 0.9 0 1.8 0 2.7 0.1h384.2v225.2c0 22.5 18.4 41 41 41h266.2v516.8c-0.1 18.8-21.9 36-46 36z" p-id="3175"></path></svg>